<svg width="156" height="125" xmlns="http://www.w3.org/2000/svg" xmlns:xlink="http://www.w3.org/1999/xlink" overflow="hidden"><defs><clipPath id="clip0"><path d="M200 154 356 154 356 279 200 279Z" fill-rule="evenodd" clip-rule="evenodd"/></clipPath><clipPath id="clip1"><path d="M201 155 355 155 355 278 201 278Z" fill-rule="evenodd" clip-rule="evenodd"/></clipPath><clipPath id="clip2"><path d="M201 155 355 155 355 278 201 278Z" fill-rule="evenodd" clip-rule="evenodd"/></clipPath></defs><g clip-path="url(#clip0)" transform="translate(-200 -154)"><g clip-path="url(#clip1)"><g clip-path="url(#clip2)"><path d="M295.205 0 295.205 295.205 0 295.205 0 0 295.205 0M298.28-3.07505-3.07505-3.07505-3.07505 298.28 298.28 298.28 298.28-3.07505Z" fill="#D0CECE" transform="matrix(1.00164 0 -0 1 176.36 4.32161)"/><path d="M138.562 43.0507 138.562 88.5922 164.546 88.5922C164.114 102.63 152.606 113.784 138.562 113.777L138.562 133.303C163.423 133.306 183.686 113.358 184.072 88.4999L184.072 88.4999 184.072 43.0507Z" fill="#D0CECE" transform="matrix(1.00164 0 -0 1 176.36 4.32161)"/><path d="M206.889 43.0507 206.889 88.5922 232.873 88.5922C232.425 102.623 220.927 113.767 206.889 113.777L206.889 133.303C231.75 133.306 252.014 113.358 252.4 88.4999L252.4 88.4999 252.4 43.0507Z" fill="#D0CECE" transform="matrix(1.00164 0 -0 1 176.36 4.32161)"/><path d="M156.643 252.154 156.643 206.613 130.659 206.613C131.091 192.575 142.599 181.421 156.643 181.428L156.643 161.809C131.782 161.806 111.519 181.754 111.132 206.613L111.132 206.613 111.132 252.154Z" fill="#D0CECE" transform="matrix(1.00164 0 -0 1 176.36 4.32161)"/><path d="M88.3154 252.154 88.3154 206.613 62.3312 206.613C62.7793 192.582 74.2778 181.437 88.3154 181.428L88.3154 161.809C63.4543 161.806 43.1909 181.754 42.8047 206.613L42.8047 206.613 42.8047 252.154Z" fill="#D0CECE" transform="matrix(1.00164 0 -0 1 176.36 4.32161)"/></g></g></g></svg>